<svg
  width="24"
  height="24"
  viewBox="0 0 24 24"
  fill="none"
  xmlns="http://www.w3.org/2000/svg"
>
  <rect width="24" height="24" fill="hsl(215, 17%, 25%)"/>
  <path fill="hsl(339, 339, 339)" d="M7.3423 8.80714V18H5.33266V8.80714H2V7H10.675V8.80714H7.3423Z" />
  <path fill="hsl(339, 339, 339)" d="M13.1911 18V7H18.0645C19.4154 7 20.409 7.33 21.0454 7.99C21.6818 8.65 22 9.45667 22 10.41C22 11.311 21.6651 12.1071 20.9952 12.7986C20.3365 13.49 19.3596 13.8357 18.0645 13.8357H15.2007V18H13.1911ZM18.1649 12.0443C18.7567 12.0443 19.1977 11.8819 19.4879 11.5571C19.7782 11.2324 19.9234 10.85 19.9234 10.41C19.9234 9.99095 19.7838 9.61905 19.5047 9.29429C19.2367 8.95905 18.7902 8.79143 18.1649 8.79143H15.2007V12.0443H18.1649Z" />
</svg>